<svg width="318" height="331" viewBox="0 0 318 331" fill="none" xmlns="http://www.w3.org/2000/svg">
<path d="M22.7142 81.5781H295.286" stroke="#000001" stroke-width="15" stroke-linecap="round" stroke-linejoin="round"/>
<path d="M56.9283 81.967H261.671V295.431C261.671 301.721 259.274 307.754 255.008 312.202C250.741 316.65 244.955 319.149 238.922 319.149H79.6775C73.6441 319.149 67.8577 316.65 63.5914 312.202C59.3251 307.754 56.9283 301.721 56.9283 295.431V81.967Z" stroke="#000001" stroke-width="15" stroke-linecap="round" stroke-linejoin="round"/>
<path d="M102.214 76.7178V65.6641C102.214 51.006 108.197 36.9483 118.846 26.5835C129.496 16.2187 143.939 10.3958 159 10.3958C174.06 10.3958 188.504 16.2187 199.154 26.5835C209.803 36.9483 215.786 51.006 215.786 65.6641V76.7178" stroke="#000001" stroke-width="15" stroke-linecap="round" stroke-linejoin="round"/>
<path d="M124.929 142.318V263.908" stroke="#000001" stroke-width="15" stroke-linecap="round" stroke-linejoin="round"/>
<path d="M193.071 142.318V263.908" stroke="#000001" stroke-width="15" stroke-linecap="round" stroke-linejoin="round"/>
</svg>
