<svg width="334" height="335" viewBox="0 0 334 335" fill="none" xmlns="http://www.w3.org/2000/svg">
<path d="M118.25 295.651L8 326.521L38.87 216.271L240.75 15.3715C243.032 13.0379 245.757 11.1838 248.765 9.91793C251.773 8.65208 255.004 8 258.267 8C261.531 8 264.762 8.65208 267.77 9.91793C270.778 11.1838 273.503 13.0379 275.785 15.3715L319.15 58.9815C321.446 61.259 323.269 63.9688 324.513 66.9543C325.757 69.9399 326.397 73.1422 326.397 76.3765C326.397 79.6107 325.757 82.813 324.513 85.7986C323.269 88.7841 321.446 91.4939 319.15 93.7715L118.25 295.651Z" stroke="#000001" stroke-width="15" stroke-linecap="round" stroke-linejoin="round"/>
<path d="M40.75 217.271L117.25 294.271" stroke="black" stroke-width="15" stroke-linecap="round"/>
</svg>
